<svg xmlns="http://www.w3.org/2000/svg" width="40" height="40" viewBox="0 0 40 40" fill="none">
<rect x="0.5" y="0.5" width="39" height="39" stroke="white"/>
<circle cx="20" cy="20" r="20" fill="#CDD5DD"/>
<g clip-path="url(#clip0_1096_18605)">
<path fill-rule="evenodd" clip-rule="evenodd" d="M12.0659 11.0748C11.2768 11.0748 10.5201 11.3883 9.9622 11.9462C9.40426 12.5041 9.09082 13.2608 9.09082 14.0499V16.0338H30.909V14.0499C30.909 13.6592 30.8321 13.2723 30.6825 12.9114C30.533 12.5504 30.3139 12.2225 30.0376 11.9462C29.7614 11.6699 29.4334 11.4508 29.0725 11.3013C28.7115 11.1518 28.3246 11.0748 27.9339 11.0748H12.0659ZM30.909 18.0161H9.09082V25.9501C9.09082 26.3408 9.16777 26.7277 9.31728 27.0887C9.46679 27.4496 9.68594 27.7776 9.9622 28.0538C10.2385 28.3301 10.5664 28.5492 10.9274 28.6987C11.2883 28.8483 11.6752 28.9252 12.0659 28.9252H27.9339C28.3246 28.9252 28.7115 28.8483 29.0725 28.6987C29.4334 28.5492 29.7614 28.3301 30.0376 28.0538C30.3139 27.7776 30.533 27.4496 30.6825 27.0887C30.8321 26.7277 30.909 26.3408 30.909 25.9501V18.0161ZM13.9126 26.0779H17.3194C17.717 26.0767 18.0981 25.9182 18.3792 25.637C18.6604 25.3558 18.8189 24.9748 18.8202 24.5772C18.8194 24.1794 18.661 23.7981 18.3797 23.5169C18.0984 23.2356 17.7172 23.0772 17.3194 23.0764H13.9126C13.5149 23.0772 13.1336 23.2356 12.8523 23.5169C12.5711 23.7981 12.4127 24.1794 12.4119 24.5772C12.4131 24.9748 12.5716 25.3558 12.8528 25.637C13.134 25.9182 13.515 26.0767 13.9126 26.0779Z" fill="white"/>
</g>
<defs>
<clipPath id="clip0_1096_18605">
<rect width="21.8182" height="21.8182" fill="white" transform="translate(9.09082 9.09091)"/>
</clipPath>
</defs>
</svg>